<svg width="16" height="17" fill="none" xmlns="http://www.w3.org/2000/svg"><path fill-rule="evenodd" clip-rule="evenodd" d="M5 1.333c.368 0 .666.298.666.667v.333h4.667V2a.667.667 0 011.333 0v.333h.834A2.667 2.667 0 0115.166 5v8a2.667 2.667 0 01-2.666 2.666h-9A2.667 2.667 0 01.833 13V5A2.667 2.667 0 013.5 2.333h.833V2c0-.369.298-.667.667-.667zm-.667 2.333H3.5c-.737 0-1.334.597-1.334 1.334v.833h11.667V5c0-.737-.597-1.334-1.333-1.334h-.834V4a.667.667 0 11-1.333 0v-.334H5.666V4a.667.667 0 01-1.333 0v-.334zm9.5 3.5H2.166V13c0 .736.597 1.333 1.334 1.333h9c.736 0 1.333-.597 1.333-1.333V7.166z" fill="#787A80"/></svg>